<?xml version="1.0" encoding="UTF-8" standalone="no"?>
<svg xmlns:svg="http://www.w3.org/2000/svg" xmlns="http://www.w3.org/2000/svg" viewBox="0 0 22.948111 22.94811" version="1.1">
<path style="fill:#2c5aa0;" d="m 10.547721,4.1478843 v 2.5039 H 8.0438101 v 1.85352 h 2.5039109 v 2.5058597 h 1.85351 V 8.5053043 h 2.50586 v -1.85352 h -2.50586 v -2.5039 z m -6.0175809,3.35742 c -1.17516,0 -2.07666,0.34178 -2.70508,1.02344 -0.6213,0.67779 -0.93398001,1.6555597 -0.93750001,2.9335897 0,0.004 -1e-5,0.008 0,0.0117 -1e-5,0.004 0,0.006 0,0.01 0.003,1.27803 0.31620001,2.25776 0.93750001,2.93555 0.62842,0.68167 1.52992,1.02149 2.70508,1.02149 0.82012,0 1.55537,-0.14407 2.20508,-0.43164 v -1.77735 c -0.32663,0.13491 -0.65152,0.24984 -0.97461,0.3457 -0.32308,0.0958 -0.65757,0.14258 -1.00196,0.14258 -1.13673,0 -1.70607,-0.74578 -1.70898,-2.23633 v -0.01 -0.0117 c 0.003,-1.4905597 0.57225,-2.2363297 1.70898,-2.2363297 0.34439,0 0.67888,0.0486 1.00196,0.14453 0.32309,0.0958 0.64798,0.21079 0.97461,0.34571 v -1.7793 c -0.64971,-0.28758 -1.38496,-0.43164 -2.20508,-0.43164 z m 12.1113309,0.1582 -1.31055,1.31055 2.49805,2.4999997 -2.49805,2.49805 1.31055,1.31054 2.49804,-2.49804 2.5,2.49804 1.3086,-1.31054 -2.49805,-2.49805 2.49805,-2.4999997 -1.3086,-1.31055 -2.5,2.4999997 z m -6.09375,4.2734397 v 2.50391 H 8.0438101 v 1.85351 h 2.5039109 v 2.50586 h 1.85351 v -2.50586 h 2.50586 v -1.85351 h -2.50586 v -2.50391 z" />
<path style="fill:#2c5aa0;opacity:0.4;" d="M 11.475032,5.4581932e-8 A 11.474052,11.474052 0 0 0 1.6840127,5.51758 c 0.89243,-0.40682 1.88058,-0.60742 2.84571,-0.60742 0.47477,0 0.91052,0.20158 1.375,0.27734 a 2.595704,2.595704 0 0 1 2.04883,-1.12695 2.595704,2.595704 0 0 1 2.5937493,-2.50782 h 1.85351 a 2.595704,2.595704 0 0 1 2.5918,2.50586 2.595704,2.595704 0 0 1 1.98437,1.03516 2.595704,2.595704 0 0 1 1.5,0.73633 l 0.66211,0.66211 0.66406,-0.66407 A 2.595704,2.595704 0 0 1 21.033622,5.14258 11.474052,11.474052 0 0 0 11.475032,5.4581932e-8 Z M 19.139092,16.45508 l -0.66211,0.66406 a 2.595704,2.595704 0 0 1 -1.49804,0.73633 2.595704,2.595704 0 0 1 -1.98438,1.03125 2.595704,2.595704 0 0 1 -2.59375,2.50976 h -1.85351 a 2.595704,2.595704 0 0 1 -2.5917993,-2.50781 2.595704,2.595704 0 0 1 -2.05274,-1.12695 c -0.46373,0.0755 -0.89904,0.27539 -1.37304,0.27539 -0.966,0 -1.95697,-0.20109 -2.85157,-0.60938 a 11.474052,11.474052 0 0 0 9.7968793,5.51954 11.474052,11.474052 0 0 0 9.56055,-5.14454 2.595704,2.595704 0 0 1 -1.23047,-0.68359 z" />
</svg>
